<svg xmlns="http://www.w3.org/2000/svg" viewBox="0 0 256 256" role="img" aria-labelledby="t"><title id="t">Fraction Kingdom</title><defs><linearGradient id="bg" y2="1"><stop stop-color="#4775bf"/><stop offset="1" stop-color="#152656"/></linearGradient><linearGradient id="castle" y2="1"><stop stop-color="#8edbff"/><stop offset="1" stop-color="#3e65c8"/></linearGradient></defs><rect x="3" y="3" width="250" height="250" rx="40" fill="url(#bg)" stroke="#07122f" stroke-width="7"/><circle cx="128" cy="91" r="67" fill="#75cbff" opacity=".2"/><g stroke="#07122f" stroke-width="7" stroke-linejoin="round"><path d="M53 170V103h18V78l22 17 22-17v25h18v67z" fill="url(#castle)"/><path d="M119 170V73h18V47l22 18 22-18v26h18v97z" fill="url(#castle)"/><path d="M43 170h169v24H43z" fill="#f0c86a"/><path d="M116 90h24v33h-24zM65 124h22v28H65zM168 112h22v40h-22z" fill="#243d8b"/><path d="M128 91a42 42 0 1 0 42 42h-42z" fill="#ffdb4d"/><path d="M128 91a42 42 0 0 1 42 42h-42z" fill="#ff8b66"/><path d="M128 91v84M86 133h84" fill="none" stroke="#07122f" stroke-width="6"/></g><path d="M128 34v-19M128 15l13 8-13 8" stroke="#ffdb4d" stroke-width="6" fill="none" stroke-linecap="round"/><rect x="17" y="201" width="222" height="40" rx="16" fill="#07122fcc" stroke="#89a9ee" stroke-width="2"/><text x="128" y="228" text-anchor="middle" fill="#fff" font-family="Arial Black,Arial,sans-serif" font-size="20" font-weight="900">FRACTION KINGDOM</text></svg>
