<svg xmlns="http://www.w3.org/2000/svg" viewBox="0 0 256 256" role="img" aria-labelledby="t"><title id="t">Mini Business Manager</title><defs><linearGradient id="bg" y2="1"><stop stop-color="#536fb8"/><stop offset="1" stop-color="#151f4b"/></linearGradient><linearGradient id="hair" y2="1"><stop stop-color="#ed8668"/><stop offset="1" stop-color="#a94648"/></linearGradient><linearGradient id="shirt" y2="1"><stop stop-color="#dff7ff"/><stop offset="1" stop-color="#75acd0"/></linearGradient></defs><rect x="3" y="3" width="250" height="250" rx="40" fill="url(#bg)" stroke="#07122f" stroke-width="7"/><circle cx="68" cy="123" r="43" fill="#20376f" stroke="#07122f" stroke-width="7"/><path d="M68 92v28h25" fill="none" stroke="#7fe5ff" stroke-width="7" stroke-linecap="round"/><g stroke="#07122f" stroke-width="7" stroke-linejoin="round"><path d="M91 73c0-25 20-44 45-44h32c27 0 46 20 46 48v32h-42V76H91z" fill="url(#hair)"/><rect x="96" y="77" width="83" height="99" rx="34" fill="#ffd0b4"/><path d="M96 113H84a18 18 0 0 0 0 36h12M179 113h12a18 18 0 0 1 0 36h-12" fill="#f3ae93"/><circle cx="121" cy="116" r="6" fill="#07122f"/><circle cx="155" cy="116" r="6" fill="#07122f"/><path d="M124 143q14 12 28 0" fill="none" stroke-linecap="round"/><path d="M123 176v13l-17 14 12 16h38l12-16-17-14v-13" fill="#f08a72"/><path d="M96 177l-34 20v43h132v-43l-34-20-32 29z" fill="url(#shirt)"/><path d="M112 188l16 18 16-18M128 206l-8 34h25l-8-34" fill="none"/><path d="M185 164l17-17 14 14-17 17z" fill="#8ddc83"/></g><circle cx="211" cy="167" r="32" fill="#ffcf4e" stroke="#07122f" stroke-width="7"/><path d="M211 145v44M201 155c12-9 25 2 12 10-16 9-4 20 9 10" fill="none" stroke="#07122f" stroke-width="6" stroke-linecap="round"/><rect x="17" y="201" width="222" height="40" rx="16" fill="#07122fcc" stroke="#89a9ee" stroke-width="2"/><text x="128" y="228" text-anchor="middle" fill="#fff" font-family="Arial Black,Arial,sans-serif" font-size="18" font-weight="900">MINI BUSINESS</text></svg>
