<svg xmlns="http://www.w3.org/2000/svg" viewBox="0 0 256 256" role="img" aria-labelledby="t"><title id="t">Typing Defense</title><defs><linearGradient id="bg" y2="1"><stop stop-color="#2856a0"/><stop offset="1" stop-color="#101b48"/></linearGradient><linearGradient id="shield" y2="1"><stop stop-color="#69e7ff"/><stop offset="1" stop-color="#2872e2"/></linearGradient></defs><rect x="3" y="3" width="250" height="250" rx="40" fill="url(#bg)" stroke="#07122f" stroke-width="7"/><path d="M28 65l34 14M228 65l-34 14M33 110l33 5M223 110l-33 5" stroke="#ffcf56" stroke-width="7" stroke-linecap="round"/><g stroke="#07122f" stroke-width="7" stroke-linejoin="round"><path d="M53 151h150l-13 43H66z" fill="#4a72b4"/><path d="M68 151h120" stroke="#bfefff"/><path d="M76 168h18M104 168h18M132 168h18M160 168h18M83 181h24M115 181h24M147 181h24" stroke="#7ff2dc" stroke-width="8" stroke-linecap="round"/><path d="M128 43l45 18v39c0 31-20 48-45 60-25-12-45-29-45-60V61z" fill="url(#shield)"/><path d="M128 67l10 25h18l-24 31-5-20h-17z" fill="#fff"/><circle cx="50" cy="50" r="20" fill="#ff7d9b"/><circle cx="207" cy="50" r="20" fill="#ff7d9b"/><path d="M42 48h16M199 48h16M50 42v16M207 42v16" stroke="#07122f" stroke-width="6"/></g><g fill="#fff" font-family="Arial Black,Arial,sans-serif" font-size="24" font-weight="900" text-anchor="middle"><text x="50" y="58">A</text><text x="207" y="58">S</text></g><rect x="17" y="201" width="222" height="40" rx="16" fill="#07122fcc" stroke="#89a9ee" stroke-width="2"/><text x="128" y="228" text-anchor="middle" fill="#fff" font-family="Arial Black,Arial,sans-serif" font-size="19" font-weight="900">TYPING DEFENSE</text></svg>
